<svg xmlns="http://www.w3.org/2000/svg" aria-hidden="true" style="position:absolute;width:0;height:0;overflow:hidden">
  <defs>
    <symbol id="icon-favicon" viewBox="0 0 32 32">
      <path d="M27.942 14.832C27.296 8.224 21.407 3.397 14.801 4.06 8.22 4.721 3.414 10.583 4.058 17.167s6.493 11.403 13.078 10.778c6.609-.629 11.452-6.505 10.806-13.113m-8.945-8.001c.146 0 .256.029.392.066l.029.008c.053.267 0 .392-.14.619-.245.398-.517.78-.79 1.162-.481.674-.962 1.347-1.292 2.114-.715 1.664-.548 3.604-.38 5.565.147 1.716.296 3.448-.144 5.023-.529 1.895-1.857 3.135-3.52 4.059a1.2 1.2 0 0 1-.292 0l-.061-.005-.037-.002-.016-.03c-.095-.18-.101-.191-.032-.396.089-.266.266-.538.433-.795q.097-.148.181-.286c.578-.963 1.145-2.003 1.322-3.127.222-1.403.104-2.848-.014-4.292-.15-1.832-.299-3.666.245-5.415.668-2.149 2.232-3.27 4.114-4.271z"/>
    </symbol>
  </defs>
</svg>
